<svg xmlns="http://www.w3.org/2000/svg" enable-background="new 0 0 100 100" viewBox="0 0 100 100"><path fill="#eb3352" d="M86.532,69.539c-5.18,12.425-17.226,20.453-30.688,20.455c-9.357,0-18.357-4.881-26.711-14.463
			c-5.838-7.241-10.796-15.183-14.738-23.606c-2.219-5.979-1.71-10.47,1.496-13.669c0.605-0.496,1.307-1.107,1.088-1.973
			c-1.045-4.874,1.428-10.341,6.174-12.224c0.567-0.238,0.931-0.797,0.919-1.411c-0.295-8.617,10.082-13.688,16.894-8.609
			c0.518,0.374,1.218,0.378,1.741,0.009c6.418-4.523,13.48,1.853,16.18,4.762c3.142,3.66,6.005,7.606,8.51,11.729
			c0.266,0.438,0.737,0.71,1.25,0.721c0.515,0.034,0.995-0.24,1.279-0.666c2.058-3.082,5.638-4.863,9.38-4.625
			c6.249,0.149,9.079,4.987,10.227,12.892C91.342,49.185,90.303,59.79,86.532,69.539z"/><path fill="#f9d265" d="M80.462,66.28c-3.948,9.717-13.964,16.565-24.752,16.568c-18.042-0.766-28.563-20.296-35.547-34.145
			c-1.278-3.644-1.379-5.863,0-7.051c1.379-1.188,4.148-0.325,5.605,1.525c1.457,1.85,10.907,14.281,11.21,14.898
			c0.302,0.627,1.015,0.941,1.682,0.74c0.588-0.517,0.653-1.41,0.146-2.007L23.46,34.948c-3.262-4.829,3.802-9.545,7.23-4.977
			c0,0,13.026,17.79,13.026,17.79c0.331,0.682,1.086,0.802,1.738,0.56c0.617-0.426,0.426-1.3,0-1.917l-14.685-22.42
			c-3.269-4.829,3.799-9.546,7.23-4.977c0,0,15.851,23.227,15.851,23.227c1.317,1.66,2.957,0.447,1.85-1.379
			c-1.995-3.363-8.968-15.201-10.089-17.297c-3.311-6.641,2.789-7.676,8.508-1.569c4.831,5.93,9.136,12.269,12.869,18.945
			c0.957,1.829,3.355,3.758,4.361,1.267c0.661-1.424,1.525-11.49,7.264-11.21c2.074,0,3.643,2.063,4.394,7.264
			C84.758,47.653,83.877,57.351,80.462,66.28z"/><path fill="#f5b955" d="M69.05 50.992c-.032-2.492-3.758-2.562-3.811-.045.196 5.703 1.586 11.301 4.08 16.434 1.202 2.147 4.465.479 3.363-1.749C70.548 61.037 69.219 56.081 69.05 50.992zM58.468 49.479c-4.899 3.855-8.974 8.654-11.983 14.113-.655.939-.321 2.278.704 2.793.942.483 2.097.111 2.58-.832 2.744-5.004 6.451-9.416 10.907-12.981C62.675 51.064 60.576 48.051 58.468 49.479z"/><path d="M60.687 6.309c5.131 2.219 9.466 5.944 12.432 10.683 1.169 2.327 4.501.6 3.554-1.704C73.239 9.611 68.084 5.137 61.943 2.61 59.502 1.828 58.267 5.44 60.687 6.309zM31.788 93.893c-8.044-4.501-14.649-11.725-18.373-20.29-.605-2.507-4.369-1.6-3.744.919 3.973 9.647 11.191 17.646 20.29 22.734C32.185 98.416 33.983 95.136 31.788 93.893z"/></svg>