<?xml version="1.0" standalone="no"?>
<!DOCTYPE svg PUBLIC "-//W3C//DTD SVG 20010904//EN"
 "http://www.w3.org/TR/2001/REC-SVG-20010904/DTD/svg10.dtd">
<svg version="1.0" xmlns="http://www.w3.org/2000/svg"
 width="328.000000pt" height="329.000000pt" viewBox="0 0 328.000000 329.000000"
 preserveAspectRatio="xMidYMid meet">
<metadata>
Created by potrace 1.16, written by Peter Selinger 2001-2019
</metadata>
<g transform="translate(0.000000,329.000000) scale(0.100000,-0.100000)"
fill="#000000" stroke="none">
<path d="M1545 2896 c-5 -2 -43 -9 -83 -16 -40 -7 -71 -14 -69 -16 2 -3 44 2
92 11 48 8 120 15 160 15 74 0 232 -23 263 -39 9 -5 44 -19 77 -32 154 -59
325 -201 422 -351 54 -82 116 -238 134 -334 6 -33 9 -118 7 -194 -4 -124 -8
-144 -42 -240 -48 -137 -104 -233 -190 -326 -188 -204 -398 -297 -671 -297
-162 0 -277 25 -399 88 -206 105 -380 296 -447 491 -11 32 -24 68 -29 79 -43
88 -37 458 8 519 4 6 21 44 36 84 15 40 50 106 77 147 27 41 46 75 44 75 -13
0 -95 -125 -115 -176 -13 -33 -31 -77 -40 -99 -57 -132 -80 -252 -80 -410 0
-274 97 -504 296 -701 52 -52 98 -94 103 -94 5 0 23 -12 40 -26 43 -36 113
-72 206 -106 150 -55 189 -62 350 -61 150 0 150 0 275 42 123 42 229 92 281
135 15 11 42 32 61 46 130 97 280 316 319 465 25 92 48 245 49 310 0 113 -52
340 -99 433 -64 125 -164 247 -280 340 -25 20 -47 40 -49 45 -2 4 -8 7 -13 7
-5 0 -35 17 -66 37 -32 21 -62 38 -68 39 -19 4 -120 46 -131 55 -28 23 -175
50 -294 54 -69 3 -129 3 -135 1z"/>
<path d="M1601 2611 c-22 -38 -55 -105 -71 -148 -17 -43 -35 -88 -40 -100
l-10 -23 160 0 c97 0 160 4 160 10 0 27 -65 182 -106 251 -25 44 -47 79 -49
79 -1 0 -21 -31 -44 -69z"/>
<path d="M1323 2611 c-72 -40 -140 -91 -189 -143 -44 -46 -94 -111 -94 -121 0
-4 53 -7 118 -7 l117 0 29 88 c16 48 42 113 57 144 41 82 40 82 -38 39z"/>
<path d="M1900 2635 c0 -3 13 -31 29 -63 15 -31 41 -96 57 -144 l29 -88 118 0
c64 0 117 3 117 6 0 17 -68 100 -129 156 -73 68 -221 156 -221 133z"/>
<path d="M955 2141 c-14 -24 -24 -166 -15 -233 5 -40 10 -79 10 -85 0 -10 36
-13 148 -13 l147 0 0 170 0 170 -142 0 c-78 0 -144 -4 -148 -9z"/>
<path d="M1447 2143 c-12 -19 -18 -162 -12 -243 l7 -90 202 2 201 3 12 70 c12
64 10 202 -3 248 -5 15 -23 17 -204 17 -109 0 -201 -3 -203 -7z m334 -215 c22
-27 24 -66 5 -90 -18 -25 -167 -26 -190 -2 -22 22 -20 71 4 92 45 38 148 38
181 0z"/>
<path d="M2054 1980 l1 -170 143 0 c126 0 143 2 150 18 9 22 9 282 0 305 -7
15 -24 17 -151 17 l-144 0 1 -170z"/>
<path d="M1057 1578 c34 -61 156 -171 243 -220 46 -26 85 -46 87 -44 2 1 -12
36 -31 77 -19 41 -44 107 -55 147 l-22 72 -120 0 -120 0 18 -32z"/>
<path d="M1518 1518 c30 -80 116 -238 127 -238 17 0 155 285 155 320 0 6 -58
10 -159 10 l-160 0 37 -92z"/>
<path d="M2006 1598 c-3 -7 -14 -47 -26 -88 -12 -41 -35 -101 -52 -133 -16
-33 -28 -61 -26 -63 2 -2 42 18 88 44 87 49 209 159 243 220 l18 32 -121 0
c-88 0 -122 -3 -124 -12z"/>
<path d="M1336 646 c-15 -50 -40 -131 -55 -181 l-27 -90 -47 -3 -46 -3 -11 43
c-6 24 -23 79 -38 123 l-28 80 -16 -50 c-9 -27 -26 -83 -38 -123 l-22 -73 -46
3 c-43 3 -46 5 -58 43 -54 170 -83 255 -78 225 4 -19 7 -47 6 -62 0 -16 -1
-56 -2 -90 -2 -44 5 -80 20 -121 20 -54 76 -127 97 -127 6 0 18 -9 27 -19 10
-11 24 -17 32 -14 8 3 21 0 29 -7 18 -15 242 -15 261 0 7 7 22 9 34 5 12 -4
27 -1 35 5 10 8 39 10 92 6 43 -3 86 -6 96 -6 9 -1 17 -5 17 -10 0 -5 8 -9 18
-9 9 0 67 0 127 0 120 0 145 1 161 12 15 9 53 10 222 7 17 0 32 -4 32 -9 0 -6
8 -10 18 -10 9 0 60 -1 113 -2 143 -2 225 28 284 104 22 28 40 55 42 61 18 88
24 142 19 169 -3 17 -6 36 -5 40 0 5 -9 17 -20 26 -12 10 -21 22 -21 27 0 5
-14 18 -31 29 -17 11 -34 29 -38 39 -6 14 -11 5 -24 -40 -9 -33 -32 -107 -50
-164 l-34 -105 -43 0 c-51 0 -48 -4 -91 137 l-32 108 -29 -88 c-15 -48 -33
-104 -39 -125 -10 -38 -11 -38 -56 -35 l-46 3 -33 110 c-18 61 -43 143 -55
183 l-22 73 -17 -44 c-9 -24 -36 -108 -60 -185 l-43 -142 -42 0 -43 0 -21 58
c-11 31 -28 85 -37 120 -10 34 -20 62 -23 62 -4 0 -17 -39 -30 -87 -40 -149
-43 -153 -94 -153 l-44 0 -48 162 c-68 227 -65 224 -99 114z"/>
<path d="M1338 3 c210 -2 554 -2 765 0 210 1 38 2 -383 2 -421 0 -593 -1 -382
-2z"/>
</g>
</svg>
